<svg width="20" height="18" viewBox="0 0 20 18" fill="none" xmlns="http://www.w3.org/2000/svg">
<path d="M14.6875 0.40625C12.3689 0.40625 10.808 1.54559 10 2.34207C9.19203 1.54559 7.63105 0.40625 5.3125 0.40625C2.13746 0.40625 0 2.95703 0 6.08016C0 10.1588 3.87668 12.7266 9.49984 17.4127C9.64469 17.5334 9.82234 17.5937 10 17.5937C10.1777 17.5937 10.3553 17.5334 10.5002 17.4127C16.1221 12.7276 20 10.1589 20 6.08016C20 2.95512 17.8606 0.40625 14.6875 0.40625ZM10 15.7971C4.82988 11.5199 1.5625 9.24379 1.5625 6.08016C1.5625 4.03707 2.85063 1.96875 5.3125 1.96875C6.4109 1.96875 7.41926 2.29922 8.30953 2.95094C8.97473 3.43789 9.33027 3.93676 9.35266 3.96867C9.49727 4.18746 9.73766 4.3191 10 4.3191C10.2623 4.3191 10.5027 4.18746 10.6473 3.96867C10.6697 3.93676 11.0253 3.43789 11.6905 2.95094C12.5807 2.29922 13.5891 1.96875 14.6875 1.96875C17.1494 1.96875 18.4375 4.03707 18.4375 6.08016C18.4375 9.24012 15.1875 11.5054 10 15.7971Z" fill="white"/>
</svg>
