<svg width="20" height="20" viewBox="0 0 20 20" fill="none" xmlns="http://www.w3.org/2000/svg">
<path d="M14.6875 1.40625C12.3689 1.40625 10.808 2.54559 10 3.34207C9.19203 2.54559 7.63105 1.40625 5.3125 1.40625C2.13746 1.40625 0 3.95703 0 7.08016C0 11.1588 3.87668 13.7266 9.49984 18.4127C9.64469 18.5334 9.82234 18.5937 10 18.5937C10.1777 18.5937 10.3553 18.5334 10.5002 18.4127C16.1221 13.7276 20 11.1589 20 7.08016C20 3.95512 17.8606 1.40625 14.6875 1.40625ZM10 16.7971C4.82988 12.5199 1.5625 10.2438 1.5625 7.08016C1.5625 5.03707 2.85063 2.96875 5.3125 2.96875C6.4109 2.96875 7.41926 3.29922 8.30953 3.95094C8.97473 4.43789 9.33027 4.93676 9.35266 4.96867C9.49727 5.18746 9.73766 5.3191 10 5.3191C10.2623 5.3191 10.5027 5.18746 10.6473 4.96867C10.6697 4.93676 11.0253 4.43789 11.6905 3.95094C12.5807 3.29922 13.5891 2.96875 14.6875 2.96875C17.1494 2.96875 18.4375 5.03707 18.4375 7.08016C18.4375 10.2401 15.1875 12.5054 10 16.7971Z" fill="#231F20"/>
</svg>
