<svg width="16" height="16" viewBox="0 0 16 16" fill="none" xmlns="http://www.w3.org/2000/svg">
<g clip-path="url(#clip0_5001_139)">
<path d="M14.9159 11.3744C14.225 10.1805 13.2315 9.17908 12.0428 8.47864C11.5633 8.19604 11.0564 7.96594 10.5315 7.79016C11.6012 7.00464 12.2969 5.7384 12.2969 4.3125C12.2969 1.93457 10.3623 0 7.98441 0C5.60648 0 3.67191 1.93457 3.67191 4.3125C3.67191 5.7384 4.36771 7.00464 5.43729 7.79016C4.91238 7.96594 4.40555 8.19617 3.92606 8.47864C2.73734 9.1792 1.7438 10.1805 1.05289 11.3745C0.940704 11.5681 0.940704 11.8069 1.05289 12.0006C2.44376 14.4039 5.03836 16 7.98441 16C10.93 16 13.5248 14.4044 14.916 12.0006C15.0281 11.8069 15.0281 11.5681 14.9159 11.3744ZM4.92191 4.3125C4.92191 2.62378 6.29568 1.25 7.98441 1.25C9.67313 1.25 11.0469 2.62378 11.0469 4.3125C11.0469 6.00122 9.67313 7.375 7.98441 7.375C6.29568 7.375 4.92191 6.00122 4.92191 4.3125ZM7.98441 14.75C5.69925 14.75 3.5795 13.6018 2.32755 11.6875C2.89676 10.8171 3.66275 10.0847 4.5607 9.55554C5.5939 8.94678 6.77774 8.625 7.98441 8.625C9.19107 8.625 10.3749 8.94678 11.4081 9.55554C12.3061 10.0847 13.0722 10.8173 13.6414 11.6875C12.391 13.5994 10.2722 14.75 7.98441 14.75Z" fill="white"/>
</g>
<defs>
<clipPath id="clip0_5001_139">
<rect width="16" height="16" fill="white"/>
</clipPath>
</defs>
</svg>
